<svg xmlns="http://www.w3.org/2000/svg" data-name="Layer 1" viewBox="0 0 100 125" x="0px" y="0px" style="fill: #fff; stroke: #fff"><title>Artboard 23</title><path d="M95.28,50.62l-1-.7,1.78-2.47a8.57,8.57,0,0,0-1.94-12L92.08,34a8.58,8.58,0,0,0-12,1.94L48.59,79.68a2.5,2.5,0,0,0-.45,1.14l-2,15.36a2.5,2.5,0,0,0,3.57,2.57L63.63,92a2.5,2.5,0,0,0,.94-.79L91.38,54l1,.7a2.18,2.18,0,0,1,.49,3L83.15,71.16a2.5,2.5,0,0,0,4.06,2.92L96.9,60.64A7.19,7.19,0,0,0,95.28,50.62ZM84.17,38.85a3.57,3.57,0,0,1,5-.81l2.06,1.49a3.57,3.57,0,0,1,.81,5L62.87,85A13.28,13.28,0,0,0,55,79.33ZM52.77,84a8.33,8.33,0,0,1,6.39,4.61l-7.48,3.63Z"/><path d="M39.52,83.64H9.82a3.08,3.08,0,0,1-3.08-3.08v-52h63v4.69a2.5,2.5,0,0,0,5,0V17.36a8.09,8.09,0,0,0-8.08-8.08H61.76V3.5a2.5,2.5,0,0,0-5,0V9.28h-9V3.5a2.5,2.5,0,0,0-5,0V9.28h-9V3.5a2.5,2.5,0,0,0-5,0V9.28h-9V3.5a2.5,2.5,0,1,0-5,0V9.28H9.82a8.09,8.09,0,0,0-8.08,8.08v63.2a8.09,8.09,0,0,0,8.08,8.08h29.7a2.5,2.5,0,1,0,0-5ZM9.82,14.28H66.71a3.08,3.08,0,0,1,3.08,3.08v6.2h-63v-6.2A3.08,3.08,0,0,1,9.82,14.28Z"/><path d="M64.07,42a2.5,2.5,0,0,0-2.5-2.5H36.71a2.5,2.5,0,0,0,0,5H61.57A2.5,2.5,0,0,0,64.07,42Z"/><path d="M36.71,53.28a2.5,2.5,0,0,0,0,5H53.76a2.5,2.5,0,1,0,0-5Z"/><path d="M47.06,69.57a2.5,2.5,0,0,0-2.5-2.5H36.71a2.5,2.5,0,0,0,0,5h7.85A2.5,2.5,0,0,0,47.06,69.57Z"/><path d="M27.82,36.9a2.5,2.5,0,0,0-3.54,0l-4.94,4.94-1.48-1.48a2.5,2.5,0,0,0-3.54,3.54l3.24,3.24a2.5,2.5,0,0,0,3.54,0l6.71-6.71A2.5,2.5,0,0,0,27.82,36.9Z"/><path d="M27.82,50.66a2.5,2.5,0,0,0-3.54,0L19.34,55.6l-1.48-1.48a2.5,2.5,0,0,0-3.54,3.54l3.24,3.24a2.5,2.5,0,0,0,3.54,0l6.71-6.71A2.5,2.5,0,0,0,27.82,50.66Z"/><path d="M24.28,64.45l-4.94,4.94-1.48-1.48a2.5,2.5,0,0,0-3.54,3.54l3.24,3.24a2.5,2.5,0,0,0,3.54,0L27.82,68a2.5,2.5,0,0,0-3.54-3.54Z"/></svg>