<svg xmlns="http://www.w3.org/2000/svg" xmlns:xlink="http://www.w3.org/1999/xlink" version="1.1" x="0px" y="0px" viewBox="0 0 100 125" style="stroke: #fff; fill:#fff" enable-background="new 0 0 100 100" xml:space="preserve"><g><path d="M73.616,29.424c0-4.441-3.603-8.043-8.041-8.043c-2.007,0-3.818,0.759-5.229,1.974c-1.406-1.214-3.218-1.974-5.219-1.974   c-2.029,0-3.86,0.776-5.273,2.014c-1.416-1.238-3.246-2.014-5.273-2.014c-4.441,0-8.041,3.602-8.041,8.043   c0,3.329,2.027,6.19,4.912,7.41v12.557H68.7v-12.56C71.589,35.611,73.616,32.753,73.616,29.424z"/><rect x="41.452" y="53.405" width="27.248" height="4.021"/></g><path d="M23.102,4.713c-4.671,0-8.471,3.798-8.471,8.467v62.357c0,4.672,3.805,8.472,8.479,8.472h23.243v11.159l8.492-5.038  l8.482,5.038V84.012l17.717,0.003V71.775h4.324V4.718L23.102,4.713z M76.338,79.302l-13.01-0.001v-3.386H46.354v3.386H23.11  c-2.078,0-3.771-1.688-3.771-3.764s1.692-3.765,3.771-3.765h53.228V79.302z M80.66,67.067H29.441V9.427H80.66V67.067z"/></svg>